<svg width="510" height="301" viewBox="0 0 510 301" fill="none" xmlns="http://www.w3.org/2000/svg">
<path d="M488.879 178.9H447.93V178.897C447.976 178.524 448.043 177.971 448.123 177.253C448.283 175.818 448.5 173.721 448.73 171.076C449.19 165.786 449.698 158.297 449.893 149.499C450.879 105.062 447.619 67.8379 444.112 41.7207C442.359 28.6619 440.544 18.379 439.167 11.3594C438.478 7.84964 437.899 5.1555 437.492 3.33789C437.288 2.42907 437.127 1.73934 437.017 1.27637C437.01 1.24572 437.003 1.21615 436.996 1.1875L488.879 0.505859V178.9Z" fill="white" stroke="#F8F8F8"/>
<rect x="424.363" y="214.5" width="85" height="85" rx="42.5" fill="white" stroke="#F8F8F8"/>
<path d="M85.6686 299.625H0.862915L172.241 0.649902L241.046 1.0245C241.046 1.0245 210.333 90.6637 210.127 149.212C209.918 208.765 241.046 300 241.046 300L172.241 299.625V148.838L85.6686 299.625Z" fill="white" stroke="#F8F8F8"/>
<path d="M337.435 299.625H267.647C267.647 299.625 240.717 207.919 241.146 147.538C241.563 88.6475 267.647 0.649902 267.647 0.649902H295.916C295.916 0.649902 321.534 16.2486 350.686 63.0448C387.068 121.446 374.538 222.282 369.237 239.18C365.215 252.004 392.206 282.077 400.156 160.537C401.533 139.495 393.575 93.0172 380.722 64.9946C364.299 29.1907 340.086 0.649902 340.086 0.649902H409.873C409.873 0.649902 420.802 87.7504 420.474 147.538C420.158 205.309 394.856 299.625 394.856 299.625H352.453C352.453 299.625 383.372 97.2086 295.916 120.24C234.781 136.34 337.435 299.625 337.435 299.625Z" fill="white" stroke="#F8F8F8"/>
</svg>
