<svg width="159" height="159" viewBox="0 0 159 159" fill="none" xmlns="http://www.w3.org/2000/svg">
<g clip-path="url(#clip0_12_6)">
<path d="M27.4 117.9V157.8H20.8V140.7L16 157.8H11.4L6.6 140.7V157.8H0V117.9H6.4L13.7 145.6L21 117.9C21 117.9 27.4 117.9 27.4 117.9ZM34.6 148.8V126.9C34.6 121 38.4 117.1 44.4 117.1C50.4 117.1 54.2 121 54.2 126.9V148.8C54.2 154.7 50.4 158.6 44.4 158.6C38.4 158.6 34.6 154.7 34.6 148.8ZM47.1 148.8V126.9C47.1 125.3 46.1 124.2 44.4 124.2C42.7 124.2 41.7 125.3 41.7 126.9V148.8C41.7 150.4 42.7 151.5 44.4 151.5C46.1 151.5 47.1 150.4 47.1 148.8ZM80.6 117.9V157.8H75.3L68.1 137.4V157.8H61.5V117.9H66.8L74 138.3V117.9H80.6ZM108 157.7H100.7L99.8 151.5H93.6L92.6 157.7H85.3L92.9 117.8H100.7L108.1 157.7H108ZM98.7 144.3L96.7 130.7L94.6 144.3H98.7ZM112.7 117.9H122.5C128.5 117.9 132.3 121.8 132.3 127.7V147.9C132.3 153.8 128.5 157.7 122.5 157.7H112.7V117.8V117.9ZM122.5 150.6C124.2 150.6 125.2 149.5 125.2 147.9V127.7C125.2 126.1 124.2 125 122.5 125H119.8V150.5H122.5V150.6ZM138.7 148.8V126.9C138.7 121 142.5 117.1 148.5 117.1C154.5 117.1 158.3 121 158.3 126.9V148.8C158.3 154.7 154.5 158.6 148.5 158.6C142.5 158.6 138.7 154.7 138.7 148.8ZM151.2 148.8V126.9C151.2 125.3 150.2 124.2 148.5 124.2C146.8 124.2 145.8 125.3 145.8 126.9V148.8C145.8 150.4 146.8 151.5 148.5 151.5C150.2 151.5 151.2 150.4 151.2 148.8Z" fill="black"/>
<path d="M115.7 17.3H41.7998V76.1H115.7V17.3Z" fill="white"/>
<path d="M124.6 13.3001L81.9002 0.400073C79.9002 -0.199927 77.8002 -0.199927 75.9002 0.400073L33.2002 13.2001C30.2002 14.1001 28.2002 16.9001 28.2002 20.0001V77.3001C28.2002 80.4001 30.3002 83.2001 33.3002 84.1001L76.0002 96.7001C77.9002 97.3001 80.0002 97.3001 81.9002 96.7001L124.6 84.1001C127.6 83.2001 129.7 80.4001 129.7 77.3001V20.1001C129.7 17.0001 127.7 14.2001 124.7 13.3001H124.6ZM61.2002 70.0001L49.1002 66.4001C47.4002 65.9001 46.2002 64.3001 46.2002 62.6001V37.8001L61.2002 58.4001L61.2002 70.0001ZM78.9002 72.8001L46.2002 28.2001L58.3002 24.6001C59.9002 24.1001 61.6002 24.6001 62.6002 26.0001L78.9002 47.1001L95.2002 26.0001C96.2002 24.7001 97.9002 24.1001 99.5002 24.6001L111.6 28.2001C111.6 28.2001 78.9002 72.8001 78.9002 72.8001ZM111.6 62.6001C111.6 64.4001 110.4 65.9001 108.7 66.4001L96.6002 70.0001V58.4001L111.6 37.8001C111.6 37.8001 111.6 62.6001 111.6 62.6001Z" fill="#5C2983"/>
</g>
<defs>
<clipPath id="clip0_12_6">
<rect width="158.4" height="158.6" fill="white"/>
</clipPath>
</defs>
</svg>
