<svg width="547" height="419" viewBox="0 0 547 419" fill="none" xmlns="http://www.w3.org/2000/svg">
<rect x="1.06519" width="545" height="419" rx="197" fill="#0E1525"/>
<path d="M489.323 244.5H448.38C448.382 244.478 448.385 244.455 448.388 244.431C448.433 244.02 448.5 243.41 448.58 242.619C448.74 241.036 448.958 238.723 449.188 235.804C449.647 229.967 450.155 221.703 450.35 211.996C451.335 162.958 448.076 121.879 444.571 93.0583C442.819 78.6479 441.004 67.3011 439.628 59.5554C438.94 55.6827 438.361 52.7101 437.954 50.7048C437.751 49.7022 437.59 48.941 437.48 48.4304C437.467 48.3695 437.454 48.3123 437.442 48.2585L489.323 47.5066V244.5Z" fill="#F3F5F7" stroke="#F8F8F8"/>
<rect x="424.565" y="289.06" width="85" height="88.44" rx="42.5" fill="#F3F5F7" stroke="#F8F8F8"/>
<path d="M85.5642 377.587H0.823242L172.071 47.9998L240.823 48.4127C240.823 48.4127 210.134 147.23 209.928 211.773C209.719 277.423 240.823 378 240.823 378L172.071 377.587V211.36L85.5642 377.587Z" fill="#F3F5F7" stroke="#F8F8F8"/>
<path d="M337.472 378H267.427C267.427 378 240.399 276.777 240.828 210.13C241.248 145.129 267.427 47.9998 267.427 47.9998H295.8C295.8 47.9998 321.512 65.2171 350.772 116.869C387.287 181.331 374.711 292.63 369.391 311.282C365.354 325.436 392.444 358.63 400.423 224.478C401.805 201.253 393.818 149.952 380.917 119.021C364.434 79.5022 340.132 47.9998 340.132 47.9998H410.176C410.176 47.9998 421.145 144.139 420.816 210.13C420.499 273.896 395.104 378 395.104 378H352.545C352.545 378 383.577 154.578 295.8 180C234.44 197.77 337.472 378 337.472 378Z" fill="#F3F5F7" stroke="#F8F8F8"/>
</svg>
